# xmcd CD database file
#
# Track frame offsets:
#	150
#	20207
#	44237
#	78592
#	108772
#	129825
#	143820
#	169285
#	189915
#	196905
#	219275
#	235707
#	256187
#	276625
#	297957
#
# Disc length: 4135 seconds
#
# Revision: 0
# Processed by: cddbd v1.5.1PL2 Copyright (c) Steve Scherf et al.
# Submitted via: CDex 1.51
#
DISCID=dd10250f
DTITLE=ミック*板谷 - Angel
DYEAR=1993
DGENRE=Other
TTITLE0=Promenado
TTITLE1=Awakening
TTITLE2=Rain Song
TTITLE3=Heaven's Above
TTITLE4=Song For Spring
TTITLE5=Dancing Around
TTITLE6=Forest
TTITLE7=Angel's War
TTITLE8=Angel's Pipe
TTITLE9=Sora To Umi
TTITLE10=Still
TTITLE11=Il Bacio
TTITLE12=Moon Talker
TTITLE13=Lovely View
TTITLE14=Angel's Doing
EXTD=YEAR: 1993
EXTT0=
EXTT1=
EXTT2=
EXTT3=
EXTT4=
EXTT5=
EXTT6=
EXTT7=
EXTT8=
EXTT9=
EXTT10=
EXTT11=
EXTT12=
EXTT13=
EXTT14=
PLAYORDER=
